<?xml version="1.0" encoding="UTF-8"?>
<svg id="Layer_1" data-name="Layer 1" xmlns="http://www.w3.org/2000/svg" viewBox="0 0 968.42 140.24">
  <defs>
    <style>
      .cls-1 {
        fill: #05988a;
      }
    </style>
  </defs>
  <path class="cls-1" d="M137.28,28.36H50.02l-7.48,27.58h71.52l-6.7,25.24H35.84l-7.48,27.89H0L29.29,0h115.62l-7.64,28.36Z"/>
  <path class="cls-1" d="M230.77,95.52c.83,3.43-.18,6.73-3.04,9.89-2.86,3.17-6.15,4.75-9.89,4.75h-73.7l21.5-28.36h30.54l-8.41-37.4-72.46,95.83h-31.63L182.15,10.28c2.08-2.8,4.67-5.04,7.79-6.7,3.12-1.66,6.26-2.49,9.43-2.49s5.84.83,8.02,2.49c2.18,1.66,3.58,3.9,4.21,6.7l19.17,85.23Z"/>
  <path class="cls-1" d="M333.3,31.94c10.6,0,18.67,3.77,24.23,11.3,5.56,7.53,6.91,16.62,4.05,27.27-2.86,10.65-9.06,19.74-18.62,27.27-9.56,7.53-19.63,11.3-30.23,11.3h-71.68l7.64-28.36h71.52c1.87,0,3.71-.44,5.53-1.32,1.82-.88,3.4-2.13,4.75-3.74,1.35-1.61,2.28-3.3,2.81-5.06.73-2.8.36-5.22-1.09-7.25-1.46-2.03-3.64-3.04-6.54-3.04h-22.59l-10.75,16.83h-18.23c-10.7,0-18.8-3.76-24.31-11.3-5.51-7.53-6.83-16.62-3.97-27.27,2.86-10.65,9.06-19.74,18.62-27.27,9.56-7.53,19.63-11.3,30.23-11.3h71.68l-7.64,28.36h-71.52c-1.46,0-2.88.26-4.29.78-1.4.52-2.68,1.25-3.82,2.18-1.14.94-2.16,2.03-3.04,3.27-.88,1.25-1.53,2.55-1.95,3.9-.73,2.8-.37,5.22,1.09,7.25,1.45,2.03,3.58,3.04,6.39,3.04h22.59l10.75-16.83h18.39Z"/>
  <path class="cls-1" d="M491.15,0l-7.64,28.36h-40.83l-21.66,80.71h-28.36l21.66-80.71h-40.83l7.48-28.36h110.17Z"/>
  <path class="cls-1" d="M572.8,95.52c.83,3.43-.18,6.73-3.04,9.89-2.86,3.17-6.16,4.75-9.89,4.75h-73.7l21.5-28.36h30.54l-8.41-37.4-72.46,95.83h-31.63L524.18,10.28c2.08-2.8,4.67-5.04,7.79-6.7,3.12-1.66,6.26-2.49,9.43-2.49s5.84.83,8.02,2.49c2.18,1.66,3.58,3.9,4.21,6.7l19.17,85.23Z"/>
  <path class="cls-1" d="M692,0h28.36l-13.09,48.77c-2.91,10.91-8.31,20.98-16.21,30.23-7.9,9.25-17.19,16.57-27.89,21.97-10.7,5.4-21.5,8.1-32.41,8.1s-20.28-2.7-28.12-8.1c-7.84-5.4-13.22-12.72-16.13-21.97-2.91-9.24-2.91-19.32,0-30.23l13.09-48.77h28.2l-12.93,48.77c-2.39,8.83-1.3,16.36,3.27,22.59,4.57,6.23,11.27,9.35,20.1,9.35s17.22-3.12,25.17-9.35c7.95-6.23,13.11-13.76,15.5-22.59l13.09-48.77Z"/>
  <path class="cls-1" d="M839.09,0l-7.63,28.36h-40.83l-21.66,80.71h-28.36l21.66-80.71h-40.83l7.48-28.36h110.17Z"/>
  <path class="cls-1" d="M940.06,0h28.36l-29.29,109.07h-28.36l10.75-40.05h-60.77l-10.75,40.05h-28.36L850.94,0h28.36l-11.84,43.94h60.77l11.84-43.94Z"/>
</svg>